<svg xmlns="http://www.w3.org/2000/svg" xmlns:xlink="http://www.w3.org/1999/xlink" viewBox="0 0 924.73 297.2"><defs><style>.cls-1{fill:url(#linear-gradient);}.cls-2{fill:url(#linear-gradient-2);}.cls-3{fill:url(#linear-gradient-3);}.cls-4{fill:url(#linear-gradient-4);}.cls-5{fill:url(#linear-gradient-5);}.cls-6{fill:url(#linear-gradient-6);}.cls-7{fill:url(#linear-gradient-7);}.cls-8{fill:url(#linear-gradient-8);}.cls-9{fill:url(#linear-gradient-9);}.cls-10{fill:#426da7;}</style><linearGradient id="linear-gradient" x1="107.13" y1="221.05" x2="259.81" y2="221.05" gradientTransform="matrix(1, 0, 0, -1, 0, 297.2)" gradientUnits="userSpaceOnUse"><stop offset="0.39" stop-color="#f16722"/><stop offset="1" stop-color="#ffc940"/></linearGradient><linearGradient id="linear-gradient-2" x1="90.93" y1="240.45" x2="221.73" y2="240.45" gradientTransform="matrix(1, 0, 0, -1, 0, 297.2)" gradientUnits="userSpaceOnUse"><stop offset="0" stop-color="#f6921e"/><stop offset="1" stop-color="#ffc940"/></linearGradient><linearGradient id="linear-gradient-3" x1="171.33" y1="271.8" x2="222.53" y2="271.8" xlink:href="#linear-gradient-2"/><linearGradient id="linear-gradient-4" x1="83.16" y1="109.1" x2="83.16" y2="277.4" gradientTransform="matrix(1, 0, 0, -1, 0, 297.2)" gradientUnits="userSpaceOnUse"><stop offset="0.43" stop-color="#157a3a"/><stop offset="1" stop-color="#8bc53f"/></linearGradient><linearGradient id="linear-gradient-5" x1="40.18" y1="162.05" x2="121.22" y2="162.05" gradientTransform="matrix(1, 0, 0, -1, 0, 297.2)" gradientUnits="userSpaceOnUse"><stop offset="0" stop-color="#009345"/><stop offset="1" stop-color="#8bc53f"/></linearGradient><linearGradient id="linear-gradient-6" x1="0" y1="179.87" x2="51.12" y2="179.87" xlink:href="#linear-gradient-5"/><linearGradient id="linear-gradient-7" x1="153.73" y1="59.67" x2="153.73" y2="166.85" gradientTransform="matrix(1, 0, 0, -1, 0, 297.2)" gradientUnits="userSpaceOnUse"><stop offset="0" stop-color="#26a9e0"/><stop offset="0.67" stop-color="#2b388f"/></linearGradient><linearGradient id="linear-gradient-8" x1="102.13" y1="133.66" x2="260.4" y2="133.66" gradientTransform="matrix(1, 0, 0, -1, 0, 297.2)" gradientUnits="userSpaceOnUse"><stop offset="0" stop-color="#26a9e0"/><stop offset="1" stop-color="#1b75bb"/></linearGradient><linearGradient id="linear-gradient-9" x1="165.13" y1="77.45" x2="216.29" y2="77.45" xlink:href="#linear-gradient-8"/></defs><title>brosco-logo</title><g id="Layer_2" data-name="Layer 2"><g id="Layer_1-2" data-name="Layer 1"><path class="cls-1" d="M107.13,39.2l19,40.9c5,10.7,8.7,19,20.3,26,7.9,5,17.4,7,26.5,7H259c2.1-7-.4-14.9-3.3-21.5-9.5-20.3-27.3-26.5-47.6-26.5H151a53.47,53.47,0,0,1-26.9-7.4c-9.1-5.3-13.3-11.1-17-18.5Z"/><path class="cls-2" d="M221.73,113.2h-45.1c-12,0-21.1,0-32.3-7.4-7.8-5.4-13.6-13.2-17.4-21.5l-36-77.8c5.4-5,13.7-6.2,20.7-6.2,22.3,0,35.6,13.6,44.3,32.3l24,51.7a52,52,0,0,0,17.8,21.5c8.7,5.8,15.7,7,24,7.4Z"/><path class="cls-3" d="M196.93,0a25.65,25.65,0,0,1,25.6,25.6,25.6,25.6,0,0,1-51.2,0A25.59,25.59,0,0,1,196.93,0Z"/><path class="cls-4" d="M82.33,188.1l26.1-36.8c7-9.9,12-17.4,12.4-30.6.4-9.5-2.9-19-7.4-26.9l-42.6-74c-7,1.6-12.8,7.4-17,13.6-12.8,18.2-9.5,36.8.4,54.2l28.6,49.6c4.6,7.9,7.9,17.4,7.4,26.9-.5,10.3-3.4,17-7.9,24Z"/><path class="cls-5" d="M89.33,51.6l22.3,39.3c5.8,10.3,10.3,18.2,9.5,31.4-.4,9.5-4.6,18.6-9.5,26.1L62,218.7c-6.6-2.5-12-9.1-15.7-15.3-11.2-19.4-5.8-37.6,5.8-54.2l33.1-46.7c4.9-7.4,9.1-16.6,9.5-26.1.4-10.3-1.7-16.9-5.4-24.8Z"/><path class="cls-6" d="M3.33,130.1c-6.9-12.3-2.7-28.1,9.2-35,12.3-6.9,28.1-2.7,35,9.2a25.29,25.29,0,0,1-9.2,35,25.29,25.29,0,0,1-35-9.2Z"/><path class="cls-7" d="M223.83,135.2l-45.1-4.1c-11.6-1.2-20.7-1.7-32.7,4.5a51.61,51.61,0,0,0-19.4,19.4l-43,74.4c5.4,5.4,13.2,7,20.3,7.9,22.3,2.1,36.8-10.3,47.2-27.7l28.6-49.6a51.62,51.62,0,0,1,19.4-19.4c9-5,16-5.9,24.7-5.4Z"/><path class="cls-8" d="M102.13,197.6l22.8-39.3c5.8-10.3,10.3-18.2,22.3-24a53.07,53.07,0,0,1,27.3-4.6l85.6,7.4c1.2,7.5-1.7,14.9-5.4,21.1-11.2,19.4-29.4,24.4-49.6,22.3l-57.1-5a52.06,52.06,0,0,0-27.3,4.6c-9.4,4.7-14,10.1-18.6,17.5Z"/><path class="cls-9" d="M213,232.6c-7.3,12.3-22.7,16.5-34.9,9.2a25.64,25.64,0,0,1-9.6-34.9c7.3-12.3,23-16.5,34.9-9.2a25.72,25.72,0,0,1,9.6,34.9Z"/><path class="cls-10" d="M385.13,133.4c0-7.6-2.9-13-8.6-16.2-3.8-2.1-10.2-3.6-19-4.4q27.6-2.1,27.6-23.7V62.5c0-10.2-5.5-18.1-16.4-23.5Q356,32.7,339,32.7c-11.5,0-21.5,2.1-30.2,6.3-11.3,5.6-16.9,13.4-16.9,23.5V162.9q0,29.25,47.2,29.2c15.3,0,26.5-2.3,33.6-6.8,8.9-5.6,13.3-15.4,13.3-29.5,0-2.4-.1-6.2-.4-11.2S385.13,135.9,385.13,133.4Zm-36.2,30.3c0,6.4-3.4,9.6-10.3,9.6s-10.6-3.2-10.6-9.6V122h2.6c6,0,10.2.6,12.7,1.8,3.7,1.9,5.5,5.6,5.5,10.9v29Zm.9-82.5a86.8,86.8,0,0,0-.9,10c0,9-6.6,13.6-19.8,13.6h-1V60.7c0-6.1,3.6-9.1,10.8-9.1,7.9,0,11.9,6.3,11.9,19C350.73,73.1,350.43,76.6,349.83,81.2Z"/><path class="cls-10" d="M477.93,39.1q-12.75-6.3-30-6.3c-11.3,0-21.4,2.1-30.2,6.3C406.63,44.7,401,52.5,401,62.6V188.5h36.2V122h2.6c6,0,10.2.6,12.7,1.8,3.7,1.9,5.5,5.6,5.5,10.9v53.2s36.2,4.9,36.2-24.1c.2-7,0-29.1,0-29.1q0-19.5-27.6-21.9,27.6-2.1,27.6-23.7V62.5C494.33,52.3,488.83,44.5,477.93,39.1Zm-18,50c0,10.4-7.5,15.6-22.4,15.6h-.3V60.6c0-6.1,3.6-9.1,10.8-9.1,7.9,0,11.9,6.3,11.9,19Z"/><path class="cls-10" d="M586.83,39.1c-8.9-4.2-18.9-6.3-30.2-6.3-11.5,0-21.5,2.1-30.2,6.3-11.3,5.6-16.9,13.4-16.9,23.5V163c0,10.3,5.6,18.1,16.9,23.5,8.7,4.3,18.8,6.5,30.2,6.5s21.4-2.2,30.2-6.5c11.1-5.4,16.7-13.2,16.7-23.5V62.5C603.53,52.5,598,44.6,586.83,39.1Zm-19.5,124.6q0,9.6-10.8,9.6t-10.8-9.6V61c0-6.2,3.6-9.4,10.8-9.4s10.8,3.1,10.8,9.4Z"/><path class="cls-10" d="M804.73,40.6c-7.3-4.7-18.8-7-34.4-7q-47,0-46.9,28.9V162.9c0,10.3,5.6,18.1,16.7,23.5,8.7,4.3,18.8,6.5,30.2,6.5s21.4-2.2,30.2-6.5c11.1-5.4,16.7-13.2,16.7-23.5v-9.4s.8-24.1-36.2-24v34.1c0,6.4-3.6,9.6-10.7,9.6s-10.7-3.2-10.7-9.6V60.6c0-6.3,3.6-9.4,10.7-9.4S781,54.3,781,60.6a48.92,48.92,0,0,1,0,7.9c2,30.7,36.2,24.1,36.2,24.1,0-2.3.1-5.9.4-10.8s.4-8.7.4-11.3C818,56.4,813.63,46.4,804.73,40.6Z"/><path class="cls-10" d="M908,39.1c-8.9-4.2-18.9-6.3-30.2-6.3-11.5,0-21.5,2.1-30.2,6.3-11.3,5.6-16.9,13.4-16.9,23.5V163c0,10.3,5.6,18.1,16.9,23.5,8.7,4.3,18.8,6.5,30.2,6.5s21.4-2.2,30.2-6.5c11.1-5.4,16.7-13.2,16.7-23.5V62.5C924.63,52.5,919.13,44.6,908,39.1Zm-19.6,124.6q0,9.6-10.8,9.6t-10.8-9.6V61c0-6.2,3.6-9.4,10.8-9.4s10.8,3.1,10.8,9.4Z"/><path class="cls-10" d="M696.63,40.6c-7.8-3.5-18.6-7-34.4-7q-46.35,0-46.4,29V79.3c0,8.5,5,17.4,14.9,26.6,9.2,7.1,18.4,14.4,27.6,21.7,9.9,8,15.9,15,15.9,20.8v11.9c0,8.7-4,13.1-11.9,13.1-6.9,0-10.3-3.1-10.3-9.4V129.6l-.1.1V124c-16.2,0-25.3,6.1-30.4,14.3-5.2,8.4-3.8,27.7-3.8,27.8,1.8,8.4,4,14.7,10.3,18.9,7.4,4.9,18.9,7.3,34.3,7.3q46.8,0,46.8-29.2V143c0-8-4.9-16.2-14.7-24.8-9.1-7.1-18.2-14.2-27.3-21.4-9.8-8.7-15.2-17-15.2-25,0-1,.1-7.8.1-8.9,0-7.5,3.4-11.2,10.3-11.2,7.9,0,11.8,6.8,11.8,20.3V96.1c6,1.5,10.6-.4,15.9-3,7.5-3.5,20.6-11.2,17.5-39.2C706.93,48.3,702.33,43.2,696.63,40.6Z"/><path class="cls-10" d="M324.43,241.7v4.5h-10.5c-10.9,0-16.3-3.7-16.3-11.1,0-3.6.9-6.5,2.8-8.5a9.17,9.17,0,0,1,7.3-3.1,9.43,9.43,0,0,1,7.3,3,11.3,11.3,0,0,1,2.7,7.9v7.3Zm-10.9,0v-4a33.25,33.25,0,0,0-.2-4.2c-.2-.8-.3-1.5-.5-2.2a4.79,4.79,0,0,0-.7-1.6,12,12,0,0,0-1.1-1.2,5.34,5.34,0,0,0-3.6-1,4.83,4.83,0,0,0-4,1.9,6.9,6.9,0,0,0-1.5,4.4,10,10,0,0,0,.6,3.9,4.91,4.91,0,0,0,1.6,2.1,7.15,7.15,0,0,0,2.9,1.3A24.8,24.8,0,0,0,313.53,241.7Zm-6.9-22.7a2.49,2.49,0,0,1-1.9.7,2.81,2.81,0,0,1-1.9-.7,2.5,2.5,0,0,1,1.9-4.3,2.81,2.81,0,0,1,1.9.7,2.42,2.42,0,0,1,0,3.6Zm6.7,0a2.49,2.49,0,0,1-1.9.7,2.41,2.41,0,0,1-1.8-.7,2.42,2.42,0,0,1,0-3.6,2.41,2.41,0,0,1,1.8-.7,2.81,2.81,0,0,1,1.9.7,2.42,2.42,0,0,1,0,3.6Z"/><path class="cls-10" d="M334.93,235.8c0,6.6-2.5,10-7.5,10.3h-4.6v-4.5h3.4c2.6,0,3.9-1.3,4.1-4v-9.7h1.4a3.39,3.39,0,0,1,2.5.8,4.11,4.11,0,0,1,.7,2.8v4.3Zm-6.4,18.1a2.5,2.5,0,0,1-1.8.8,2.93,2.93,0,0,1-1.9-.8,2.42,2.42,0,0,1,0-3.6,2.64,2.64,0,0,1,1.9-.7,2.41,2.41,0,0,1,1.8.7,2.42,2.42,0,0,1,0,3.6Zm6.2,0a2.93,2.93,0,0,1-1.9.8,2.55,2.55,0,0,1-1.8-4.4,2.41,2.41,0,0,1,1.8-.7,2.64,2.64,0,0,1,1.9.7,2.42,2.42,0,0,1,0,3.6Z"/><path class="cls-10" d="M343.43,227.9h1.4a3.39,3.39,0,0,1,2.5.8,4.11,4.11,0,0,1,.7,2.8v17.3a6.61,6.61,0,0,1-2.1,4.8,7.08,7.08,0,0,1-5.2,2,4.53,4.53,0,0,1-2.7-.7,2.17,2.17,0,0,1-1-1.9v-1.4a9.15,9.15,0,0,0,1.6.1,10,10,0,0,0,1.6-.2,4.67,4.67,0,0,0,1.4-.4c1.2-.6,1.8-2.3,1.8-5.2l-.1-4.6V227.9Z"/><path class="cls-10" d="M357,217.4v20c0,2.8,1.4,4.2,4.1,4.2h.7v4.5h-1.9a7.27,7.27,0,0,1-5.5-2.4,9.14,9.14,0,0,1-2-6.1V213.8h1.4a3.39,3.39,0,0,1,2.5.8A4.28,4.28,0,0,1,357,217.4Z"/><path class="cls-10" d="M372.13,223.5c5,0,8.6,2,10.7,5.9a30.09,30.09,0,0,1,3.2,12.3h4v4.5h-29.3v-4.5h20.7a21.25,21.25,0,0,0-2.3-8.6,9.83,9.83,0,0,0-3-3.7A7,7,0,0,0,372,228a12.23,12.23,0,0,0-5.7,1.1,6,6,0,0,0-2.6,2.3v-1.9a5.26,5.26,0,0,1,2.2-4.3A10.16,10.16,0,0,1,372.13,223.5Zm3.3,30.4a2.66,2.66,0,0,1-3.8,0,2.66,2.66,0,0,1,0-3.6,2.7,2.7,0,0,1,4.6,1.8A3,3,0,0,1,375.43,253.9Z"/><path class="cls-10" d="M398.73,231.5v6.4c.1,2.5,1.5,3.7,4.1,3.7H404v4.5h-2.4a7.69,7.69,0,0,1-5.2-2,7.6,7.6,0,0,1-5.2,2h-2.4v-4.5H390c2.6,0,3.9-1.3,4.1-4v-9.7h1.5a3.39,3.39,0,0,1,2.5.8A4.84,4.84,0,0,1,398.73,231.5Zm-3.9-7.3a2.41,2.41,0,0,1-1.8.7,2.81,2.81,0,0,1-1.9-.7,2.42,2.42,0,0,1,0-3.6,2.56,2.56,0,0,1,1.9-.8,2.74,2.74,0,0,1,2.6,2.6A3,3,0,0,1,394.83,224.2Zm6.1,0a2.41,2.41,0,0,1-1.8.7,2.81,2.81,0,0,1-1.9-.7,2.42,2.42,0,0,1,0-3.6,2.56,2.56,0,0,1,1.9-.8,2.55,2.55,0,0,1,1.8,4.4Z"/><path class="cls-10" d="M413.43,235.8c0,6.6-2.5,10-7.5,10.3H403v-4.5h1.8c2.6,0,3.9-1.3,4.1-4V213.8h1.4a3.39,3.39,0,0,1,2.5.8,4.11,4.11,0,0,1,.7,2.8v18.4Z"/><path class="cls-10" d="M423.43,246.2h-1.7c-2,0-3-1.1-2.9-3.2V213.9H421a2.72,2.72,0,0,1,1.7.6,1.86,1.86,0,0,1,.7,1.6Z"/><path class="cls-10" d="M468.53,241.7v4.5H458c-10.9,0-16.3-3.7-16.3-11.1,0-3.6.9-6.5,2.8-8.5a9.17,9.17,0,0,1,7.3-3.1,9.43,9.43,0,0,1,7.3,3,11.3,11.3,0,0,1,2.7,7.9v7.3Zm-10.9,0v-4a33.25,33.25,0,0,0-.2-4.2c-.2-.8-.3-1.5-.5-2.2a4.79,4.79,0,0,0-.7-1.6,12,12,0,0,0-1.1-1.2,5.34,5.34,0,0,0-3.6-1,4.83,4.83,0,0,0-4,1.9,6.9,6.9,0,0,0-1.5,4.4,10,10,0,0,0,.6,3.9,4.91,4.91,0,0,0,1.6,2.1,7.15,7.15,0,0,0,2.9,1.3A24.8,24.8,0,0,0,457.63,241.7Zm-6.9-22.7a2.49,2.49,0,0,1-1.9.7,2.81,2.81,0,0,1-1.9-.7,2.5,2.5,0,0,1,1.9-4.3,2.81,2.81,0,0,1,1.9.7,2.42,2.42,0,0,1,0,3.6Zm6.7,0a2.49,2.49,0,0,1-1.9.7,2.27,2.27,0,0,1-1.8-.7,2.42,2.42,0,0,1,0-3.6,2.41,2.41,0,0,1,1.8-.7,2.81,2.81,0,0,1,1.9.7,2.43,2.43,0,0,1,0,3.6Z"/><path class="cls-10" d="M477.13,231.5v6.4c.1,2.5,1.5,3.7,4.1,3.7h1.2v4.5H480a7.69,7.69,0,0,1-5.2-2,7.6,7.6,0,0,1-5.2,2h-2.4v-4.5h1.2c2.6,0,3.9-1.3,4.1-4v-9.7H474a3.39,3.39,0,0,1,2.5.8A5.81,5.81,0,0,1,477.13,231.5Zm-4.3,22.4a2.5,2.5,0,0,1-1.8.8,2.73,2.73,0,0,1-1.9-.8,2.42,2.42,0,0,1,0-3.6,2.64,2.64,0,0,1,1.9-.7,2.41,2.41,0,0,1,1.8.7,2.43,2.43,0,0,1,0,3.6Zm6.2,0a2.56,2.56,0,0,1-1.9.8,2.34,2.34,0,0,1-1.8-.8,2.42,2.42,0,0,1,0-3.6,2.41,2.41,0,0,1,1.8-.7,2.81,2.81,0,0,1,1.9.7,2.43,2.43,0,0,1,0,3.6Z"/><path class="cls-10" d="M491.83,235.8c0,6.6-2.5,10-7.5,10.3h-3v-4.5h1.8c2.6,0,3.9-1.3,4.1-4V213.8h1.4a3.39,3.39,0,0,1,2.5.8,4.11,4.11,0,0,1,.7,2.8Z"/><path class="cls-10" d="M505.73,223.5a9.22,9.22,0,0,1,5.1,1.3,8.56,8.56,0,0,1,3.2,3.6,22.56,22.56,0,0,1,2,9.6,32.49,32.49,0,0,1-1.1,9,11.89,11.89,0,0,1-4.4,6.1,12.63,12.63,0,0,1-7.9,2.5c-3,0-4.6-.8-4.6-2.4v-1.7a12.92,12.92,0,0,0,2.9.3,12.24,12.24,0,0,0,6.3-1.5,7.54,7.54,0,0,0,3.5-4q-15.3-.3-15.3-11.1c0-3.6.9-6.5,2.8-8.5A9.35,9.35,0,0,1,505.73,223.5Zm-4.4,5.9a6.71,6.71,0,0,0-1.5,4.4,10,10,0,0,0,.6,3.9,6,6,0,0,0,1.6,2.2c1.5,1.2,4.6,1.8,9.4,1.8v-4a33.25,33.25,0,0,0-.2-4.2,17.42,17.42,0,0,0-.5-2.2,4.79,4.79,0,0,0-.7-1.6,12,12,0,0,0-1.1-1.2,5.34,5.34,0,0,0-3.6-1A4.59,4.59,0,0,0,501.33,229.4Z"/><path class="cls-10" d="M545.13,241.7h1.2v4.5h-.8q-3.6,0-5.1-1.5c-1,1-3.3,1.5-6.8,1.5h-10.4a2.13,2.13,0,0,1-1.6-.7,2,2,0,0,1-.6-1.6v-2.1h15.8a16.55,16.55,0,0,0-3.3-9.3,9.1,9.1,0,0,0-7.4-3.8,4.47,4.47,0,0,0-2.4.4l-.3.1.7-1.5c1-2,2.8-3,5.5-2.9a9.11,9.11,0,0,1,5.4,1.9,10.94,10.94,0,0,1,4.2,5.1,24.68,24.68,0,0,1,2.1,7.5C541.63,240.9,542.93,241.7,545.13,241.7Z"/><path class="cls-10" d="M555.73,235.8c0,6.6-2.5,10-7.5,10.3h-2.9v-4.5h1.8c2.6,0,3.9-1.3,4.1-4V213.8h1.4a3.39,3.39,0,0,1,2.5.8,4.11,4.11,0,0,1,.7,2.8v18.4Z"/><path class="cls-10" d="M565.63,246.2h-1.7c-2,0-3-1.1-2.9-3.2V213.9h2.2a2.72,2.72,0,0,1,1.7.6,1.86,1.86,0,0,1,.7,1.6Z"/><path class="cls-10" d="M586.83,226.7a9.7,9.7,0,0,1,7.7-3.3,9.55,9.55,0,0,1,7.7,3.5,12.79,12.79,0,0,1,2.9,8.4,11.14,11.14,0,0,1-2.9,7.9,10.25,10.25,0,0,1-7.8,3,9.66,9.66,0,0,1-7.7-3.2,11.92,11.92,0,0,1-2.8-8.1A12.59,12.59,0,0,1,586.83,226.7Zm6.2-7.8a2.49,2.49,0,0,1-1.9.7,2.81,2.81,0,0,1-1.9-.7,2.5,2.5,0,0,1,1.9-4.3,2.81,2.81,0,0,1,1.9.7,2.43,2.43,0,0,1,0,3.6Zm1.6,23.3c4,0,6-2.4,6-7.3a8.12,8.12,0,0,0-1.7-5.4,5.62,5.62,0,0,0-4.5-2,5.07,5.07,0,0,0-4.4,2.2,9.18,9.18,0,0,0-1.5,5.3,8.65,8.65,0,0,0,1.5,5.2A5.55,5.55,0,0,0,594.63,242.2Zm5-23.3a2.49,2.49,0,0,1-1.9.7,2.27,2.27,0,0,1-1.8-.7,2.43,2.43,0,0,1,0-3.6,2.41,2.41,0,0,1,1.8-.7,2.81,2.81,0,0,1,1.9.7,2.42,2.42,0,0,1,0,3.6Z"/><path class="cls-10" d="M633.53,241.7v4.5h-5.4a10.78,10.78,0,0,1-4.2,6.7,13,13,0,0,1-8.2,2.7c-3.2,0-4.8-.8-4.8-2.5v-2.2a19.94,19.94,0,0,0,2.7.2,16,16,0,0,0,6.7-1.3c2-.9,3.2-2.1,3.5-3.6-10.3-.3-15.5-4-15.5-11.1,0-3.6.9-6.5,2.8-8.5a9.24,9.24,0,0,1,7.4-3.1,8.93,8.93,0,0,1,7.2,3,11.22,11.22,0,0,1,2.7,7.8c0,4.8,0,7.3.1,7.4Zm-19.4-12.3a6.71,6.71,0,0,0-1.5,4.4,10,10,0,0,0,.6,3.9,6,6,0,0,0,1.6,2.2c1.5,1.2,4.6,1.8,9.4,1.8v-4a33.25,33.25,0,0,0-.2-4.2c-.2-.7-.3-1.5-.5-2.2a4.79,4.79,0,0,0-.7-1.6,12,12,0,0,0-1.1-1.2c-.7-.7-1.9-1-3.6-1A4.71,4.71,0,0,0,614.13,229.4Z"/><path class="cls-10" d="M637.43,225.3c1.4-1.2,3.5-1.7,6-1.7a13.36,13.36,0,0,1,6.3,1.3,10.47,10.47,0,0,1,3.8,3.4c2.7,3.9,4,9.3,4,16.3a46.66,46.66,0,0,1-.3,5.2c-.2-.2-.5-.6-1-1.1a10.35,10.35,0,0,0-7.1-2.4h-17v-4.5h20.8a21.25,21.25,0,0,0-2.3-8.6,9.83,9.83,0,0,0-3-3.7,6.94,6.94,0,0,0-4-1.4,12.23,12.23,0,0,0-5.7,1.1,7.73,7.73,0,0,0-2.4,1.9l-.3.3v-1.9A5,5,0,0,1,637.43,225.3Zm9-6.5a2.73,2.73,0,0,1-1.9.8,2.57,2.57,0,0,1-2.5-2.7,2.27,2.27,0,0,1,.7-1.8,2.41,2.41,0,0,1,1.8-.7,2.64,2.64,0,0,1,1.9.7,2.5,2.5,0,0,1,.8,1.8A2.73,2.73,0,0,1,646.43,218.8Z"/><path class="cls-10" d="M684,213.9a3.39,3.39,0,0,1,2.5.8,4.11,4.11,0,0,1,.7,2.8v18.4c0,6.6-2.5,10-7.5,10.3h-15c-2.1,0-3.2-1-3.2-2.9v-1.6h5.6V213.9h2.2a2.72,2.72,0,0,1,1.7.6,1.86,1.86,0,0,1,.7,1.6v25.6h6.9c2.5,0,3.9-1.3,4-4V213.9Zm-17.7-6.1a3.64,3.64,0,0,1,1-2.5,3.47,3.47,0,0,1,2.6-1.1q2.55,0,3,2.1a2.3,2.3,0,0,1-.3.9,2.71,2.71,0,0,0-.3.8c-.6-1.5-1.5-2.3-2.7-2.3q-1.5,0-1.5,2.1a2.51,2.51,0,0,0,.6,2h4.5v.8a1.08,1.08,0,0,1-.3.7,1.14,1.14,0,0,1-.8.3h-6.5a1.14,1.14,0,0,1-.8-.3.91.91,0,0,1-.3-.7v-.8h1.9C666.43,209.4,666.33,208.7,666.33,207.8Z"/><path class="cls-10" d="M697.63,246.2h-1.7c-2,0-3-1.1-2.9-3.2V213.9h2.2a2.72,2.72,0,0,1,1.7.6,1.86,1.86,0,0,1,.7,1.6Z"/><path class="cls-10" d="M742.83,241.7v4.5h-10.5c-10.9,0-16.3-3.7-16.3-11.1,0-3.6.9-6.5,2.8-8.5a9.17,9.17,0,0,1,7.3-3.1,9.43,9.43,0,0,1,7.3,3,11.3,11.3,0,0,1,2.7,7.9v7.3Zm-11,0v-4a33.25,33.25,0,0,0-.2-4.2c-.2-.8-.3-1.5-.5-2.2a4.79,4.79,0,0,0-.7-1.6,12,12,0,0,0-1.1-1.2,5.34,5.34,0,0,0-3.6-1,4.83,4.83,0,0,0-4,1.9,6.9,6.9,0,0,0-1.5,4.4,10,10,0,0,0,.6,3.9,4.91,4.91,0,0,0,1.6,2.1,7.15,7.15,0,0,0,2.9,1.3A25.32,25.32,0,0,0,731.83,241.7Zm-6.9-22.7a2.49,2.49,0,0,1-1.9.7,2.81,2.81,0,0,1-1.9-.7,2.5,2.5,0,0,1,1.9-4.3,2.81,2.81,0,0,1,1.9.7,2.42,2.42,0,0,1,0,3.6Zm6.7,0a2.49,2.49,0,0,1-1.9.7,2.27,2.27,0,0,1-1.8-.7,2.42,2.42,0,0,1,0-3.6,2.41,2.41,0,0,1,1.8-.7,2.81,2.81,0,0,1,1.9.7,2.43,2.43,0,0,1,0,3.6Z"/><path class="cls-10" d="M751.33,231.5v6.4c.1,2.5,1.5,3.7,4.1,3.7h1.2v4.5h-2.4a7.69,7.69,0,0,1-5.2-2,7.6,7.6,0,0,1-5.2,2h-2.4v-4.5h1.2c2.6,0,3.9-1.3,4.1-4v-9.7h1.5a3.39,3.39,0,0,1,2.5.8A4.84,4.84,0,0,1,751.33,231.5Zm-1,22.4a2.42,2.42,0,0,1-3.6,0,2.66,2.66,0,0,1,0-3.6,2.66,2.66,0,0,1,3.6,0,2.66,2.66,0,0,1,0,3.6Z"/><path class="cls-10" d="M767,223.5c5,0,8.6,2,10.7,5.9a30.09,30.09,0,0,1,3.2,12.3h4v4.5h-29.3v-4.5h20.7a21.25,21.25,0,0,0-2.3-8.6,9.83,9.83,0,0,0-3-3.7,6.94,6.94,0,0,0-4-1.4,12.23,12.23,0,0,0-5.7,1.1,6.71,6.71,0,0,0-2.6,2.3v-1.9a5.26,5.26,0,0,1,2.2-4.3C762.43,224,764.33,223.5,767,223.5Zm2.4-4.7a2.73,2.73,0,0,1-1.9.8,2.27,2.27,0,0,1-1.8-.7,2.5,2.5,0,0,1,1.8-4.3,2.64,2.64,0,0,1,1.9.7,2.5,2.5,0,0,1,.8,1.8A2.46,2.46,0,0,1,769.43,218.8Z"/><path class="cls-10" d="M795.43,235.8c0,6.6-2.5,10-7.5,10.3h-4.6v-4.5h3.4c2.6,0,3.9-1.3,4.1-4v-9.7h1.4a3.39,3.39,0,0,1,2.5.8,4.11,4.11,0,0,1,.7,2.8Zm-.6-11.5a2.41,2.41,0,0,1-1.8.7,2.74,2.74,0,0,1-2.8-2.5,2.27,2.27,0,0,1,.9-1.8,2.93,2.93,0,0,1,1.9-.8,2.55,2.55,0,0,1,1.8,4.4Z"/><path class="cls-10" d="M840.23,241.7v4.5h-10.5c-10.9,0-16.3-3.7-16.3-11.1,0-3.6.9-6.5,2.8-8.5a9.17,9.17,0,0,1,7.3-3.1,9.43,9.43,0,0,1,7.3,3,11.3,11.3,0,0,1,2.7,7.9v7.3Zm-11,0v-4a33.25,33.25,0,0,0-.2-4.2c-.2-.8-.3-1.5-.5-2.2a4.79,4.79,0,0,0-.7-1.6,12,12,0,0,0-1.1-1.2,5.34,5.34,0,0,0-3.6-1,4.83,4.83,0,0,0-4,1.9,6.9,6.9,0,0,0-1.5,4.4,10,10,0,0,0,.6,3.9,4.91,4.91,0,0,0,1.6,2.1,7.15,7.15,0,0,0,2.9,1.3A25.32,25.32,0,0,0,829.23,241.7Zm-6.9-22.7a2.49,2.49,0,0,1-1.9.7,2.81,2.81,0,0,1-1.9-.7,2.5,2.5,0,0,1,1.9-4.3,2.81,2.81,0,0,1,1.9.7,2.43,2.43,0,0,1,0,3.6Zm6.7,0a2.49,2.49,0,0,1-1.9.7,2.27,2.27,0,0,1-1.8-.7,2.43,2.43,0,0,1,0-3.6,2.41,2.41,0,0,1,1.8-.7,2.81,2.81,0,0,1,1.9.7,2.42,2.42,0,0,1,0,3.6Z"/><path class="cls-10" d="M838.83,246.2v-4.5h17.3q-.75-12.6-10.2-12.6a9.67,9.67,0,0,0-2.9.4l-.9-1.2a2.88,2.88,0,0,1-.7-2c0-.8.5-1.5,1.5-2.3l19.8-14.9,1.3,1.7a2.77,2.77,0,0,1,.5,1.6,2.09,2.09,0,0,1-.8,1.6l-14.1,10.7a13.31,13.31,0,0,1,5.7,2.4,11.12,11.12,0,0,1,3.5,4.3,24.63,24.63,0,0,1,2.1,10.3v4.5Z"/><path class="cls-10" d="M881.53,246.2a7.72,7.72,0,0,1-1.5-.2.76.76,0,0,0-.1.4v2.2a6.73,6.73,0,0,1-2,4.8,6.57,6.57,0,0,1-5,2.1,4.53,4.53,0,0,1-2.7-.7,2.17,2.17,0,0,1-1-1.9v-1.3a8.64,8.64,0,0,0,1.5.1,6.6,6.6,0,0,0,1.4-.1,5,5,0,0,0,1.3-.4,3.49,3.49,0,0,0,.9-.6,1.46,1.46,0,0,0,.6-.9c.2-.5.3-.8.4-1.1a11.28,11.28,0,0,0,.2-1.4,10.36,10.36,0,0,0,.1-1.6V227.8h1.5a3.39,3.39,0,0,1,2.5.8,4.11,4.11,0,0,1,.7,2.8v9.8a5.68,5.68,0,0,0,2.4.5h2.8v4.5Z"/><path class="cls-10" d="M884.73,246.2v-4.5h6V225.2h1.4a3.39,3.39,0,0,1,2.5.8,4.11,4.11,0,0,1,.7,2.8v12.9h4.8c2.6,0,3.9-1.3,4.1-4V225.2h1.5a3,3,0,0,1,2.4.8,4.74,4.74,0,0,1,.7,2.8c0,6.2,0,9.4.1,9.5-.1.8-.2,1.6-.3,2.2a9.79,9.79,0,0,0,4.8,1.4,4.21,4.21,0,0,0,3.3-1.1,4.79,4.79,0,0,0,1-3.1V225.2h1.5a3.39,3.39,0,0,1,2.5.8,4.11,4.11,0,0,1,.7,2.8v7.1c0,3.3-.7,5.9-2.2,7.7a7.22,7.22,0,0,1-5.9,2.7c-3.5,0-6-.7-7.7-2a7.17,7.17,0,0,1-5.2,2h-16.7ZM905,218.9a2.41,2.41,0,0,1-1.8.7,2.64,2.64,0,0,1-1.9-.7,2.43,2.43,0,0,1,0-3.6,2.64,2.64,0,0,1,1.9-.7,2.27,2.27,0,0,1,1.8.7,2.41,2.41,0,0,1,.7,1.8A2.87,2.87,0,0,1,905,218.9Zm2.9-5.5a2.5,2.5,0,1,1,0-3.6,2.5,2.5,0,0,1,.8,1.8A3,3,0,0,1,907.93,213.4Zm3.2,5.5a2.49,2.49,0,0,1-1.9.7,2.64,2.64,0,0,1-1.9-.7,2.5,2.5,0,0,1,1.9-4.3,2.64,2.64,0,0,1,1.9.7,2.43,2.43,0,0,1,0,3.6Z"/><path class="cls-10" d="M307.83,279.3H299v8.1h9.8v2.4h-12.7V267.3h12.2v2.4H299v7.1h8.8Z"/><path class="cls-10" d="M312.53,266.1h2.9v23.7h-2.9Z"/><path class="cls-10" d="M323.73,269.1a1.76,1.76,0,0,1-1.9,1.8,1.8,1.8,0,0,1,0-3.6A1.76,1.76,0,0,1,323.73,269.1Zm-3.3,20.7V273.6h2.9v16.2Z"/><path class="cls-10" d="M331.83,269v4.7H336v2.2h-4.2v8.7c0,2,.6,3.1,2.2,3.1a6.53,6.53,0,0,0,1.7-.2l.1,2.2a8.33,8.33,0,0,1-2.6.4,4.08,4.08,0,0,1-3.2-1.2c-.8-.9-1.1-2.3-1.1-4.2v-8.8h-2.5v-2.2h2.5v-3.9Z"/><path class="cls-10" d="M340.83,282.3c.1,4,2.6,5.6,5.6,5.6a12.08,12.08,0,0,0,4.5-.8l.5,2.1a12.47,12.47,0,0,1-5.4,1c-5,0-8-3.3-8-8.2s2.9-8.7,7.6-8.7c5.3,0,6.7,4.7,6.7,7.6,0,.6-.1,1.1-.1,1.4Zm8.6-2.1c0-1.9-.8-4.8-4.1-4.8-3,0-4.3,2.7-4.5,4.8Z"/><path class="cls-10" d="M363.13,267.6a25.76,25.76,0,0,1,5.3-.5c2.9,0,4.8.5,6.2,1.6a4.71,4.71,0,0,1,1.9,4,5.37,5.37,0,0,1-3.8,5v.1a5.79,5.79,0,0,1,4.6,5.7,6.24,6.24,0,0,1-1.9,4.5c-1.6,1.4-4.1,2.1-7.8,2.1a24.85,24.85,0,0,1-4.5-.3Zm2.9,9.2h2.6c3.1,0,4.9-1.6,4.9-3.8,0-2.6-2-3.7-5-3.7a13.38,13.38,0,0,0-2.6.2v7.3Zm0,10.8a16.27,16.27,0,0,0,2.4.1c3,0,5.8-1.1,5.8-4.4,0-3.1-2.6-4.3-5.8-4.3H366Z"/><path class="cls-10" d="M381.13,278.7c0-1.9,0-3.5-.1-5.1h2.6l.1,3.2h.1a4.74,4.74,0,0,1,4.5-3.5,2,2,0,0,1,.8.1v2.8a3.08,3.08,0,0,0-1-.1c-2.1,0-3.5,1.6-3.9,3.8a6.15,6.15,0,0,0-.1,1.4v8.6h-2.9V278.7Z"/><path class="cls-10" d="M406.43,281.6c0,6-4.1,8.6-8.1,8.6-4.4,0-7.8-3.2-7.8-8.3,0-5.4,3.5-8.6,8-8.6C403.23,273.3,406.43,276.7,406.43,281.6Zm-12.9.2c0,3.5,2,6.2,4.9,6.2s4.9-2.6,4.9-6.3c0-2.7-1.4-6.2-4.8-6.2S393.53,278.7,393.53,281.8Z"/><path class="cls-10" d="M413.63,269v4.7h4.2v2.2h-4.2v8.7c0,2,.6,3.1,2.2,3.1a6.53,6.53,0,0,0,1.7-.2l.1,2.2a8.33,8.33,0,0,1-2.6.4,4.08,4.08,0,0,1-3.2-1.2c-.8-.9-1.1-2.3-1.1-4.2v-8.8h-2.5v-2.2h2.5v-3.9Z"/><path class="cls-10" d="M421.13,266.1H424v10.1h.1a6,6,0,0,1,2.1-2.1,6.11,6.11,0,0,1,3-.8c2.2,0,5.7,1.3,5.7,6.9v9.6H432v-9.3c0-2.6-1-4.8-3.7-4.8a4.11,4.11,0,0,0-3.9,2.9,3,3,0,0,0-.2,1.4v9.8h-2.9V266.1Z"/><path class="cls-10" d="M441.33,282.3c.1,4,2.6,5.6,5.6,5.6a12.08,12.08,0,0,0,4.5-.8l.5,2.1a12.47,12.47,0,0,1-5.4,1c-5,0-8-3.3-8-8.2s2.9-8.7,7.6-8.7c5.3,0,6.7,4.7,6.7,7.6,0,.6-.1,1.1-.1,1.4Zm8.7-2.1c0-1.9-.8-4.8-4.1-4.8-3,0-4.3,2.7-4.5,4.8Z"/><path class="cls-10" d="M456.53,278.7c0-1.9,0-3.5-.1-5.1H459l.1,3.2h.1a4.74,4.74,0,0,1,4.5-3.5,2,2,0,0,1,.8.1v2.8a3.08,3.08,0,0,0-1-.1c-2.1,0-3.5,1.6-3.9,3.8a6.15,6.15,0,0,0-.1,1.4v8.6h-2.9V278.7Z"/><path class="cls-10" d="M467,286.8a7.5,7.5,0,0,0,3.9,1.2c2.1,0,3.1-1.1,3.1-2.4s-.8-2.2-3-3c-2.9-1-4.3-2.6-4.3-4.6,0-2.6,2.1-4.8,5.6-4.8a8.69,8.69,0,0,1,4,1l-.7,2.1a6.21,6.21,0,0,0-3.3-.9c-1.7,0-2.7,1-2.7,2.2s1,1.9,3.1,2.7c2.8,1.1,4.2,2.5,4.2,4.9,0,2.8-2.2,4.9-6.1,4.9a8.56,8.56,0,0,1-4.5-1.1Z"/><path class="cls-10" d="M490.73,267.3v22.5h-2.9V267.3Z"/><path class="cls-10" d="M496.13,278c0-1.7,0-3-.1-4.4h2.6l.2,2.7h.1a6,6,0,0,1,5.4-3c2.2,0,5.7,1.3,5.7,6.9v9.7h-2.9v-9.3c0-2.6-1-4.8-3.7-4.8a4.2,4.2,0,0,0-3.9,3,5.9,5.9,0,0,0-.2,1.4v9.7h-2.9V278Z"/><path class="cls-10" d="M518,269v4.7h4.2v2.2H518v8.7c0,2,.6,3.1,2.2,3.1a6.53,6.53,0,0,0,1.7-.2l.1,2.2a8.33,8.33,0,0,1-2.6.4,4.08,4.08,0,0,1-3.2-1.2c-.8-.9-1.1-2.3-1.1-4.2v-8.8h-2.5v-2.2h2.5v-3.9Z"/><path class="cls-10" d="M527,282.3c.1,4,2.6,5.6,5.6,5.6a12.08,12.08,0,0,0,4.5-.8l.5,2.1a12.47,12.47,0,0,1-5.4,1c-5,0-8-3.3-8-8.2s2.9-8.7,7.6-8.7c5.3,0,6.7,4.7,6.7,7.6,0,.6-.1,1.1-.1,1.4Zm8.6-2.1c0-1.9-.8-4.8-4.1-4.8-3,0-4.3,2.7-4.5,4.8Z"/><path class="cls-10" d="M542.13,278.7c0-1.9,0-3.5-.1-5.1h2.6l.1,3.2h.1a4.74,4.74,0,0,1,4.5-3.5,2,2,0,0,1,.8.1v2.8a3.08,3.08,0,0,0-1-.1c-2.1,0-3.5,1.6-3.9,3.8a6.15,6.15,0,0,0-.1,1.4v8.6h-2.9V278.7Z"/><path class="cls-10" d="M553.23,278c0-1.7,0-3-.1-4.4h2.6l.2,2.7h.1a6,6,0,0,1,5.4-3c2.2,0,5.7,1.3,5.7,6.9v9.7h-2.9v-9.3c0-2.6-1-4.8-3.7-4.8a4.2,4.2,0,0,0-3.9,3,5.9,5.9,0,0,0-.2,1.4v9.7h-2.9V278Z"/><path class="cls-10" d="M580.73,289.8l-.2-2h-.1a5.92,5.92,0,0,1-5,2.4,4.65,4.65,0,0,1-5-4.7c0-3.9,3.5-6.1,9.7-6v-.3c0-1.3-.4-3.7-3.7-3.7a8.26,8.26,0,0,0-4.2,1.2l-.7-1.9a9.71,9.71,0,0,1,5.3-1.4c5,0,6.2,3.4,6.2,6.6v6.1a22.9,22.9,0,0,0,.3,3.9h-2.6Zm-.4-8.2c-3.2-.1-6.9.5-6.9,3.6a2.62,2.62,0,0,0,2.8,2.8,4,4,0,0,0,3.9-2.7,2.92,2.92,0,0,0,.2-.9Z"/><path class="cls-10" d="M591.33,269v4.7h4.2v2.2h-4.2v8.7c0,2,.6,3.1,2.2,3.1a6.53,6.53,0,0,0,1.7-.2l.1,2.2a8.33,8.33,0,0,1-2.6.4,4.08,4.08,0,0,1-3.2-1.2c-.8-.9-1.1-2.3-1.1-4.2v-8.8h-2.5v-2.2h2.5v-3.9Z"/><path class="cls-10" d="M602.13,269.1a1.76,1.76,0,0,1-1.9,1.8,1.8,1.8,0,1,1,0-3.6A1.76,1.76,0,0,1,602.13,269.1Zm-3.3,20.7V273.6h2.9v16.2Z"/><path class="cls-10" d="M621.33,281.6c0,6-4.1,8.6-8.1,8.6-4.4,0-7.8-3.2-7.8-8.3,0-5.4,3.5-8.6,8-8.6C618.23,273.3,621.33,276.7,621.33,281.6Zm-12.8.2c0,3.5,2,6.2,4.9,6.2s4.9-2.6,4.9-6.3c0-2.7-1.4-6.2-4.8-6.2S608.53,278.7,608.53,281.8Z"/><path class="cls-10" d="M625,278c0-1.7,0-3-.1-4.4h2.6l.2,2.7h.1a6,6,0,0,1,5.4-3c2.2,0,5.7,1.3,5.7,6.9v9.7H636v-9.3c0-2.6-1-4.8-3.7-4.8a4.2,4.2,0,0,0-3.9,3,5.9,5.9,0,0,0-.2,1.4v9.7h-2.9V278Z"/><path class="cls-10" d="M652.53,289.8l-.2-2h-.1a5.92,5.92,0,0,1-5,2.4,4.65,4.65,0,0,1-5-4.7c0-3.9,3.5-6.1,9.7-6v-.3c0-1.3-.4-3.7-3.7-3.7a8.26,8.26,0,0,0-4.2,1.2l-.7-1.9a9.71,9.71,0,0,1,5.3-1.4c5,0,6.2,3.4,6.2,6.6v6.1a22.9,22.9,0,0,0,.3,3.9h-2.6Zm-.4-8.2c-3.2-.1-6.9.5-6.9,3.6A2.62,2.62,0,0,0,648,288a4,4,0,0,0,3.9-2.7,2.92,2.92,0,0,0,.2-.9Z"/><path class="cls-10" d="M659.73,266.1h2.9v23.7h-2.9Z"/><path class="cls-10" d="M679.13,269.8h-6.9v-2.5h16.7v2.5H682v20.1h-2.9V269.8Z"/><path class="cls-10" d="M689.83,278.7c0-1.9,0-3.5-.1-5.1h2.6l.1,3.2h.1a4.74,4.74,0,0,1,4.5-3.5,2,2,0,0,1,.8.1v2.8a3.08,3.08,0,0,0-1-.1c-2.1,0-3.5,1.6-3.9,3.8a6.15,6.15,0,0,0-.1,1.4v8.6h-2.9V278.7Z"/><path class="cls-10" d="M709.53,289.8l-.2-2h-.1a5.92,5.92,0,0,1-5,2.4,4.65,4.65,0,0,1-5-4.7c0-3.9,3.5-6.1,9.7-6v-.3c0-1.3-.4-3.7-3.7-3.7a8.26,8.26,0,0,0-4.2,1.2l-.7-1.9a9.71,9.71,0,0,1,5.3-1.4c5,0,6.2,3.4,6.2,6.6v6.1a22.9,22.9,0,0,0,.3,3.9h-2.6Zm-.4-8.2c-3.2-.1-6.9.5-6.9,3.6A2.62,2.62,0,0,0,705,288a4,4,0,0,0,3.9-2.7,2.92,2.92,0,0,0,.2-.9Z"/><path class="cls-10" d="M730.73,266.1v19.6c0,1.4,0,3.1.1,4.2h-2.6l-.1-2.8H728a6,6,0,0,1-5.5,3.2c-3.9,0-6.9-3.3-6.9-8.2,0-5.4,3.3-8.7,7.3-8.7a5.51,5.51,0,0,1,4.9,2.5h.1v-9.7h2.8Zm-3,14.1a4.48,4.48,0,0,0-.1-1.2,4.22,4.22,0,0,0-4.2-3.4c-3,0-4.8,2.7-4.8,6.3,0,3.3,1.6,6,4.8,6a4.36,4.36,0,0,0,4.3-3.5,5.28,5.28,0,0,0,.1-1.3v-2.9Z"/><path class="cls-10" d="M738.93,269.1a1.76,1.76,0,0,1-1.9,1.8,1.8,1.8,0,0,1,0-3.6A1.82,1.82,0,0,1,738.93,269.1Zm-3.3,20.7V273.6h2.9v16.2Z"/><path class="cls-10" d="M743.43,278c0-1.7,0-3-.1-4.4h2.6l.2,2.7h.1a6,6,0,0,1,5.4-3c2.2,0,5.7,1.3,5.7,6.9v9.7h-2.9v-9.3c0-2.6-1-4.8-3.7-4.8a4.2,4.2,0,0,0-3.9,3,5.9,5.9,0,0,0-.2,1.4v9.7h-2.9V278Z"/><path class="cls-10" d="M775.93,273.7c-.1,1.2-.1,2.5-.1,4.4v9.4c0,3.7-.7,6-2.3,7.4a8.4,8.4,0,0,1-5.9,1.9,11.34,11.34,0,0,1-5.4-1.3l.7-2.2a8.86,8.86,0,0,0,4.8,1.3c3,0,5.2-1.6,5.2-5.7v-1.8h-.1a5.76,5.76,0,0,1-5.2,2.7c-4,0-6.9-3.4-6.9-7.9,0-5.5,3.6-8.6,7.3-8.6a5.66,5.66,0,0,1,5.1,2.8h.1l.1-2.4Zm-3,6.3a2.74,2.74,0,0,0-.2-1.3,4.23,4.23,0,0,0-4.1-3.1c-2.8,0-4.8,2.4-4.8,6.1,0,3.2,1.6,5.8,4.8,5.8a4.35,4.35,0,0,0,4.1-3,4.4,4.4,0,0,0,.2-1.6Z"/><path class="cls-10" d="M803.63,289.1a15.11,15.11,0,0,1-6,1.1c-6.4,0-11.1-4-11.1-11.4,0-7.1,4.8-11.8,11.8-11.8a12.55,12.55,0,0,1,5.4,1l-.7,2.4a11.2,11.2,0,0,0-4.5-.9c-5.3,0-8.8,3.4-8.8,9.3,0,5.5,3.2,9.1,8.7,9.1a12.27,12.27,0,0,0,4.7-.9Z"/><path class="cls-10" d="M821.43,281.6c0,6-4.1,8.6-8.1,8.6-4.4,0-7.8-3.2-7.8-8.3,0-5.4,3.5-8.6,8-8.6C818.33,273.3,821.43,276.7,821.43,281.6Zm-12.8.2c0,3.5,2,6.2,4.9,6.2s4.9-2.6,4.9-6.3c0-2.7-1.4-6.2-4.8-6.2S808.63,278.7,808.63,281.8Z"/><path class="cls-10" d="M825.23,278c0-1.7,0-3-.1-4.4h2.6l.1,2.6h.1a5.66,5.66,0,0,1,5.1-3,4.78,4.78,0,0,1,4.6,3.2h.1a6.25,6.25,0,0,1,1.8-2.1,5.72,5.72,0,0,1,3.6-1.1c2.1,0,5.3,1.4,5.3,7v9.5h-2.9v-9.2c0-3.1-1.1-5-3.5-5a3.75,3.75,0,0,0-3.5,2.7,6.05,6.05,0,0,0-.2,1.5v10h-2.9V280c0-2.6-1.1-4.4-3.4-4.4a4,4,0,0,0-3.6,2.9,3.18,3.18,0,0,0-.2,1.4v9.8h-2.9V278Z"/><path class="cls-10" d="M853,278.9c0-2.1-.1-3.7-.1-5.3h2.6l.1,2.8h.1a6.29,6.29,0,0,1,5.8-3.1c3.9,0,6.9,3.3,6.9,8.2,0,5.8-3.5,8.7-7.4,8.7a5.77,5.77,0,0,1-5-2.5h-.1v8.8H853Zm3,4.4c0,.4.1.8.1,1.2a4.5,4.5,0,0,0,4.4,3.4c3.1,0,4.9-2.5,4.9-6.3,0-3.2-1.7-6-4.8-6a4.56,4.56,0,0,0-4.4,3.6,5,5,0,0,0-.2,1.2Z"/><path class="cls-10" d="M881,289.8l-.2-2h-.1a5.92,5.92,0,0,1-5,2.4,4.65,4.65,0,0,1-5-4.7c0-3.9,3.5-6.1,9.7-6v-.3c0-1.3-.4-3.7-3.7-3.7a8.26,8.26,0,0,0-4.2,1.2l-.7-1.9a9.71,9.71,0,0,1,5.3-1.4c5,0,6.2,3.4,6.2,6.6v6.1a22.9,22.9,0,0,0,.3,3.9H881Zm-.4-8.2c-3.2-.1-6.9.5-6.9,3.6a2.62,2.62,0,0,0,2.8,2.8,4,4,0,0,0,3.9-2.7,2.92,2.92,0,0,0,.2-.9Z"/><path class="cls-10" d="M888.23,278c0-1.7,0-3-.1-4.4h2.6l.2,2.7h.1a6,6,0,0,1,5.4-3c2.2,0,5.7,1.3,5.7,6.9v9.7h-2.9v-9.3c0-2.6-1-4.8-3.7-4.8a4.2,4.2,0,0,0-3.9,3,5.9,5.9,0,0,0-.2,1.4v9.7h-2.9V278Z"/><path class="cls-10" d="M907.43,273.7l3.5,9.6a24.41,24.41,0,0,1,1,3.3h.1c.3-1,.6-2.2,1-3.4l3.2-9.5h3.1l-4.4,11.5c-2.1,5.6-3.5,8.4-5.6,10.1a7.32,7.32,0,0,1-3.6,1.9l-.7-2.5a8.39,8.39,0,0,0,2.6-1.4,9.16,9.16,0,0,0,2.5-3.3,2.54,2.54,0,0,0,.2-.7,4.5,4.5,0,0,0-.2-.8l-6-14.9h3.3Z"/></g></g></svg>