<svg xmlns="http://www.w3.org/2000/svg" version="1.2" viewBox="-0.04 67.9 1150.07 1082.09">
	<title>Logo-ai</title>
	<style>
		.s0 { fill: #1678bd } 
	</style>
	<g id="&lt;Group&gt;">
		<g id="&lt;Group&gt;">
			<path id="&lt;Compound Path&gt;" fill-rule="evenodd" class="s0" d="m974 575.3l-215.5-0.1c-42.7-0.3-81.8-3.1-127.5-33.5-41.6-28.5-65.6-68.4-78.4-96.9l-159.8-345.3 3.1-2.8c20.7-19.1 52.5-28.8 94.7-28.8 88.8 0 154.1 47.4 199.7 145l105.4 227.1c16.8 37.3 43.8 70 76.2 92.1 36.1 24.1 64.9 29.9 102.4 31.7zm-567.2-472.9l156.2 337.6c12.3 27.2 35.1 65.2 74.4 92.1 43.1 28.7 78.9 31.3 121.2 31.6l149.9 0.1c-13.9-5-28-12.1-43.1-22.1-34.1-23.4-62.6-57.8-80.2-96.9l-105.4-227c-43.5-93.2-105.3-138.4-189.2-138.4-37.1 0-65.3 7.7-83.8 23z"/>
		</g>
		<path id="&lt;Compound Path&gt;" fill-rule="evenodd" class="s0" d="m274.7 1039.7l-4.1-1.5c-32.1-12-56.9-44.5-72-69.6-44.1-76.8-35.7-156.6 25.6-244.3l145.5-205.3c25.1-37.7 39.1-76.3 40.7-111.4 1.7-41.3-6.6-69-19.5-97.8l-1.5-3.7c-0.7-1.5-1.3-3.1-2.1-4.7l10.2-5.3 99.1 174.4c3.4 5.9 6.4 11.5 9.3 17l1.6 3c3 5.4 5.8 11 8.4 16.4l1 2.1c12.8 27 24 57 21.3 100.9-1.7 37.1-16.5 77.7-42.8 117.3zm143.6-683.8c3 15.4 4.4 32.3 3.6 52.2-1.6 37.2-16.4 77.8-42.7 117.4l-145.5 205.4c-58.6 83.6-66.8 159.4-25.2 231.8 13.5 22.4 35 51 62 63l215.4-305c25.1-37.7 39.2-76.3 40.8-111.4 2.6-41.4-8-69.8-19.7-94.3l-0.7-1.6-0.7-1.4c-2.6-5.3-5.3-10.8-8.2-16.1l-1.6-2.9c-2.9-5.6-5.9-11.1-9.2-16.9l-1-1.8z"/>
		<g id="&lt;Group&gt;">
			<path id="&lt;Compound Path&gt;" fill-rule="evenodd" class="s0" d="m453.7 943.1l-9.9-5.9 100-172.5c5.6-10 10.9-19.4 16.4-28.3 20.2-33 42.2-59.1 84.2-79.4 36.6-17.4 78.9-24.5 123-20.5l380.5 33.1 0.8 4.4c4.8 29-3.4 61.5-24.4 96.5-39.2 68.2-102.1 102.8-186.9 102.8q0 0 0 0c-11.7 0-24-0.6-36.7-1.9l-250.7-21.8c-42.1-3.9-82.1 2.9-116.9 19.5-40.2 19.1-59.6 41.7-79.4 74zm289.9-296.2c-34.1 0-65.8 6.9-94.2 20.5-39.5 19.1-60.3 43.8-79.4 75-5.4 8.8-10.7 18.1-16.2 28l-65.5 113c11-9 23.8-17.1 39.8-24.7 36.8-17.5 79-24.5 122.9-20.5l250.8 21.7c101.1 10.2 169.8-20.8 212.6-95.2 18.5-30.9 26.4-59.3 23.5-84.5l-371.5-32.2c-7.6-0.7-15.3-1.1-22.8-1.1z"/>
		</g>
		<path id="&lt;Path&gt;" class="s0" d="m935.5 1093.8c-32 54-99.5 72.5-153.5 40.4-53.9-30.3-72.4-99.4-42.1-153.3 32.1-54 101.2-72.5 153.5-40.5 53.9 30.4 72.5 99.5 42.1 153.4z"/>
		<g id="&lt;Group&gt;">
			<path id="&lt;Path&gt;" class="s0" d="m1121.8 483.1c-41.8-89.1-119.9-116.3-209-116.3h-162.4l38.8 83.6c16.4 36.3 43.6 70.8 78.2 94.4 38.1 25.5 69 30.9 105.4 32.7h163.6c9-30.9-1.9-65.4-14.6-94.4z"/>
			<path id="&lt;Path&gt;" class="s0" d="m865 295c-62.2 0-112.4-49.8-112.4-111.5 0-61.6 50.2-111.5 112.4-111.5 62.1 0 112.3 49.9 112.3 111.5 0 61.7-50.2 111.5-112.3 111.5z"/>
			<path id="&lt;Path&gt;" class="s0" d="m424.6 405.1c1.7-41.6-6.1-69.6-19.9-100.4l-85.5-148.5c-30.8 7.3-56.3 32.7-74.5 60-56.4 79.9-41.8 161.7 1.8 238l81.9 142.3 54.5-76.9c21.7-32.7 39.9-72.7 41.7-114.5z"/>
			<path id="&lt;Path&gt;" class="s0" d="m526.4 857.3c-41.8 19.9-61.8 43.5-81.8 76.2l-81.8 139.9c23.7 23.7 58.2 30.9 89.2 34.5 98 9.1 161.6-45.4 207.1-121.7l81-140.8-93.8-8.1c-39.9-3.6-81.7 1.8-119.9 20z"/>
			<path id="&lt;Path&gt;" class="s0" d="m14.6 625.5c-30.4-54.1-11.8-123.3 40.6-153.7 54-30.4 123.3-11.8 153.8 40.5 32 54 13.5 123.3-40.6 153.7-54 32.1-123.3 13.5-153.8-40.5z"/>
		</g>
	</g>
</svg>